# xmcd CD database file
#
# Track frame offsets:
#	150
#	30277
#	60290
#	83557
#	102630
#	124572
#	147642
#	167515
#	192050
#	221577
#
# Disc length: 3277 seconds
#
# Revision: 0
# Processed by: cddbd v1.5PL3 Copyright (c) Steve Scherf et al.
# Submitted via: CDex 1.51
#
DISCID=7d0ccb0a
DTITLE=Takashi - Storm Zone
DYEAR=2003
DGENRE=Jazz
TTITLE0=Southern Cross
TTITLE1=Moko-Moko
TTITLE2=New Morning
TTITLE3=The Do-Ton-Bori River
TTITLE4=Jungle Song
TTITLE5=The World In Sorrow
TTITLE6=Storm Zone
TTITLE7=The Doorway To Dreams
TTITLE8=Blues For Whales
TTITLE9=Copy Protection Data Track
EXTD=YEAR: 2003
EXTT0=
EXTT1=
EXTT2=
EXTT3=
EXTT4=
EXTT5=
EXTT6=
EXTT7=
EXTT8=
EXTT9=
PLAYORDER=
